<svg width="123" height="61" viewBox="0 0 123 61" fill="none" xmlns="http://www.w3.org/2000/svg">
<path fill-rule="evenodd" clip-rule="evenodd" d="M31.3037 24.925C31.8802 26.4827 34.177 29.7415 35.2244 31.1344L39.6799 30.332C39.7075 32.2331 39.8743 31.9388 36.6314 32.9307C30.9305 34.6744 28.6099 34.4098 27.35 37.4251C26.8598 38.5983 26.801 38.5036 26.6266 39.5902C30.0714 38.8776 33.8576 37.5384 37.2033 36.7396C38.8297 36.3512 39.021 36.5986 39.5769 38.4297C37.6412 39.0957 35.8842 38.9332 36.0447 40.9197C37.4228 40.9394 40.5842 39.9563 42.1055 39.5573L48.2033 38.3652C47.4868 39.918 31.7597 43.7834 28.2971 44.6255C25.0773 45.4084 24.0361 45.5271 21.9669 44.0432C15.5273 39.4258 13.9815 32.681 8.40676 33.6834C7.31284 33.88 6.1254 34.301 5.03874 34.6533C3.42362 35.1767 2.92471 35.0723 2.83561 36.6679C2.90784 36.6923 3.01265 36.6314 3.061 36.7083C3.42602 37.2909 6.96519 35.2614 8.22364 35.9769C7.52032 37.191 4.72729 37.5845 3.35809 37.9598C0.740203 38.6773 0.105917 38.6705 8.98125e-05 41.6578L5.07473 40.4758L13.1881 51.7158L15.0958 51.4663C14.0056 48.7924 8.94563 42.7654 8.84306 40.7499C13.2022 39.6234 12.3142 45.8967 21.7269 47.5051L20.4752 48.2543C17.9093 49.1842 16.9568 48.4253 17.2153 51.0698C21.7843 50.2253 26.3989 49.1656 30.9793 48.2565C34.0898 47.6391 41.6898 45.6386 44.3632 45.6623C47.8122 49.2411 46.0933 49.1488 52.5152 48.1354C59.7122 46.9997 66.5729 45.7989 73.6476 44.1688C75.3642 43.7733 76.9382 43.1591 78.4761 43.4C79.8392 43.6136 81.8497 43.8043 82.8257 44.5025C80.233 46.2833 36.4388 52.1202 27.6414 52.7282C24.4259 52.9506 21.7099 53.0806 18.7314 53.063C12.9901 53.0291 15.7074 52.1599 10.2293 53.1497C10.4778 55.2738 11.5438 55.8508 13.7395 55.6646L14.3031 57.7356C17.2521 58.2946 32.4844 55.7237 36.9932 55.3917C44.5302 54.8367 52.6433 53.714 60.111 52.8142C75.1174 51.0058 90.5257 49.3745 104.481 45.057C114.424 41.9807 113.433 40.3848 111.298 30.5576C110.495 26.8616 110.37 23.4523 106.986 22.6756C102.552 21.6579 88.7753 24.2031 85.2775 23.5177C79.9749 22.4787 82.3774 16.8732 67.2288 22.6854C64.2831 23.8156 60.2795 25.1537 60.9043 28.3851L70.3713 31.1331C71.8223 31.1891 69.6735 31.101 73.488 29.9758C79.5924 28.1755 99.6526 22.2849 105.067 24.4775C106.473 25.0465 106.576 28.9535 107.311 31.8933C107.685 33.3918 109.256 38.3727 109.248 39.3872C107.842 39.5886 107.475 38.7293 106.853 37.8505C105.378 38.0094 92.6233 42.7514 88.2203 42.9941C87.0904 43.0562 84.5046 41.3457 83.4546 40.5248C83.6407 39.5597 85.229 38.4595 82.9976 37.5758C77.6734 35.467 65.3514 31.5595 59.519 29.5096C55.1336 27.9684 50.5662 26.5377 45.9396 24.9944C43.543 24.195 41.3427 23.2769 39.0786 22.9608C35.4468 22.4537 33.8065 23.6245 31.3043 24.9251L31.3037 24.925ZM112.137 27.343C111.843 28.6446 113.117 33.1026 113.738 34.3375C115.877 34.062 119.223 30.3837 119.355 28.9611C118.363 27.8106 113.574 27.0399 112.969 27.092L112.137 27.343ZM113.314 30.198C114.49 30.3217 117.041 29.6096 118.281 29.2611C117.529 28.2532 114.402 27.8501 112.831 27.9912L113.314 30.198ZM97.1359 30.8551L95.9287 28.3858L94.2474 28.6271L96.2101 33.0322C94.6794 35.924 94.4218 35.8671 92.9303 37.689C92.8751 37.7564 92.714 37.9639 92.6646 38.0392C92.2431 38.6827 92.7014 37.6771 92.3169 38.7121C96.7616 37.9827 95.5908 37.3113 97.3294 35.3913C98.0615 36.0446 98.1005 36.5577 98.501 37.3534L100.328 36.9903C99.516 34.6048 97.9377 34.0677 98.8063 31.6065C99.4232 29.8581 100.343 27.6829 100.273 25.8428C99.7814 26.7933 98.8575 29.7609 97.1359 30.8551ZM75.4698 32.4965C76.0333 33.4139 81.4589 35.0975 82.5661 35.5696C84.5664 36.4226 88.8639 38.3533 90.1677 38.4576C91.073 37.6759 91.4626 36.8812 92.1068 36.0774C92.8278 35.1776 93.4743 34.563 94.1182 33.5893C93.8757 32.4966 92.3906 30.1127 91.8013 29.3777L75.4698 32.4965ZM111.661 26.5241C113.264 26.4183 114.633 26.9092 115.639 26.7824C115.627 23.8169 114.483 14.2051 113.57 11.6562C113.034 10.1614 109.059 0.659015 108.46 -8.2416e-05C105.93 0.245009 106.683 3.62119 106.874 5.79776C107.843 16.8407 107.847 15.4511 111.661 26.5241ZM112.74 13.7329C113.07 13.1812 113.097 12.9807 112.798 12.0791C112.648 11.6289 112.354 11.0649 112.17 10.6208C111.349 8.64261 108.934 2.35786 108.089 1.46852C106.949 3.40834 108.445 5.35122 109.514 7.59672L112.189 13.1019C112.741 13.9361 112.427 13.4565 112.74 13.7331L112.74 13.7329ZM113.822 35.2379C113.887 38.3078 114.807 47.1795 115.782 49.5912C116.533 51.4483 119.883 60.2332 121.027 60.8946C123.341 60.0537 122.556 57.1526 122.314 54.5527C122.076 51.9987 121.887 49.1447 121.421 46.5009C121.023 44.2446 118.11 34.9342 117.193 33.1795C116.907 33.2923 114.47 34.8199 113.822 35.2383L113.822 35.2379ZM121.13 59.515C122.649 57.9708 119.674 53.3963 118.243 50.3127L116.484 47.2877C115.931 48.2976 116.554 49.2072 117.123 50.5312C117.779 52.059 120.561 58.9293 121.13 59.5147L121.13 59.515ZM40.8512 25.1109C41.4485 25.6081 49.2491 28.7815 50.9354 29.3845L76.5462 39.8248C78.6959 40.7044 80.3328 41.2214 82.1093 39.0268C81.4921 38.0469 73.4623 35.7387 71.9534 35.2209C63.2478 32.2327 52.0175 28.6813 43.5149 25.5359C42.4316 25.1351 41.5408 24.6186 40.8513 25.1111L40.8512 25.1109ZM80.0755 24.534C78.5711 26.0682 77.0392 24.8174 76.8812 26.6138C77.678 27.0221 77.3529 26.9189 78.51 26.6318L83.6991 24.9692C83.2222 24.2328 79.0499 20.5354 76.2833 21.4821C77.2766 22.8322 79.4414 22.9943 80.0753 24.534L80.0755 24.534ZM65.1181 25.3388C67.0448 26.5614 68.742 26.647 70.6606 25.9968C72.8686 25.2489 74.9431 24.784 77.3566 24.1908C75.7815 21.1746 67.1115 23.3841 65.1181 25.3388Z" fill="#E30538"/>
</svg>
