<svg width="1000" height="1000" viewBox="0 0 1000 1000" fill="none" xmlns="http://www.w3.org/2000/svg">
<path d="M499.8 499.963L1000 480.001V519.925L499.8 499.963Z" fill="#9580FF" fill-opacity="0.04"/>
<path d="M500.202 500.039L3.05176e-05 480.077V520.001L500.202 500.039Z" fill="#9580FF" fill-opacity="0.04"/>
<path d="M499.817 499.913L988.141 610.093L977.808 648.657L499.817 499.913Z" fill="#9580FF" fill-opacity="0.04"/>
<path d="M500.188 500.091L22.1963 351.348L11.8633 389.911L500.188 500.091Z" fill="#9580FF" fill-opacity="0.04"/>
<path d="M499.846 499.867L943.015 732.68L923.053 767.255L499.846 499.867Z" fill="#9580FF" fill-opacity="0.04"/>
<path d="M500.159 500.135L76.9521 232.746L56.9901 267.321L500.159 500.135Z" fill="#9580FF" fill-opacity="0.04"/>
<path d="M499.884 499.831L867.695 839.412L839.465 867.643L499.884 499.831Z" fill="#9580FF" fill-opacity="0.04"/>
<path d="M500.116 500.171L160.535 132.36L132.305 160.59L500.116 500.171Z" fill="#9580FF" fill-opacity="0.04"/>
<path d="M499.932 499.808L767.32 923.015L732.745 942.977L499.932 499.808Z" fill="#9580FF" fill-opacity="0.04"/>
<path d="M500.068 500.197L267.255 57.0285L232.68 76.9905L500.068 500.197Z" fill="#9580FF" fill-opacity="0.04"/>
<path d="M499.988 499.797L648.732 977.789L610.168 988.122L499.988 499.797Z" fill="#9580FF" fill-opacity="0.04"/>
<path d="M500.019 500.207L389.839 11.8829L351.276 22.216L500.019 500.207Z" fill="#9580FF" fill-opacity="0.04"/>
<path d="M500.039 499.8L520.001 1000L480.077 1000L500.039 499.8Z" fill="#9580FF" fill-opacity="0.04"/>
<path d="M499.963 500.202L519.925 3.05176e-05L480.001 2.87724e-05L499.963 500.202Z" fill="#9580FF" fill-opacity="0.04"/>
<path d="M500.09 499.817L389.91 988.141L351.346 977.808L500.09 499.817Z" fill="#9580FF" fill-opacity="0.04"/>
<path d="M499.912 500.188L648.656 22.1963L610.092 11.8633L499.912 500.188Z" fill="#9580FF" fill-opacity="0.04"/>
<path d="M500.137 499.846L267.324 943.015L232.748 923.053L500.137 499.846Z" fill="#9580FF" fill-opacity="0.04"/>
<path d="M499.869 500.159L767.258 76.9524L732.683 56.9904L499.869 500.159Z" fill="#9580FF" fill-opacity="0.04"/>
<path d="M500.171 499.884L160.59 867.695L132.359 839.465L500.171 499.884Z" fill="#9580FF" fill-opacity="0.04"/>
<path d="M499.831 500.116L867.642 160.535L839.412 132.305L499.831 500.116Z" fill="#9580FF" fill-opacity="0.04"/>
<path d="M500.196 499.932L76.989 767.32L57.027 732.745L500.196 499.932Z" fill="#9580FF" fill-opacity="0.04"/>
<path d="M499.807 500.069L942.975 267.255L923.013 232.68L499.807 500.069Z" fill="#9580FF" fill-opacity="0.04"/>
<path d="M500.205 499.986L22.2132 648.73L11.8801 610.166L500.205 499.986Z" fill="#9580FF" fill-opacity="0.04"/>
<path d="M499.794 500.017L988.119 389.837L977.786 351.274L499.794 500.017Z" fill="#9580FF" fill-opacity="0.04"/>
</svg>
