<svg width="92" height="24" viewBox="0 0 92 24" fill="none" xmlns="http://www.w3.org/2000/svg">
<path d="M1.07729 2.89889L0 0H18.0096C20.1043 0 24.7127 1.14842 22.7377 5.85695C21.1098 9.73792 14.0795 11.8125 10.7678 12.3647L8.49351 18.5766L6.39877 12.6013L9.63065 3.54967H13.88L11.5458 9.99823C14.7179 9.22913 17.4709 7.86843 18.1293 5.26534C18.656 3.18287 16.7527 2.89889 15.4959 2.89889H1.07729Z" fill="#D9D9D9"/>
<path d="M1.07729 2.89889L0 0H18.0096C20.1043 0 24.7127 1.14842 22.7377 5.85695C21.1098 9.73792 14.0795 11.8125 10.7678 12.3647L8.49351 18.5766L6.39877 12.6013L9.63065 3.54967H13.88L11.5458 9.99823C14.7179 9.22913 17.4709 7.86843 18.1293 5.26534C18.656 3.18287 16.7527 2.89889 15.4959 2.89889H1.07729Z" fill="url(#paint0_linear_149_2118)"/>
<path d="M89.4179 6.57221V13.2663H87.3458V4.85398H89.3081L89.4179 6.57221ZM92.0002 4.79956L91.9688 6.71216C91.8537 6.69143 91.7229 6.67588 91.5764 6.66551C91.4351 6.65514 91.3017 6.64996 91.1761 6.64996C90.8569 6.64996 90.577 6.69402 90.3363 6.78213C90.0956 6.86506 89.8941 6.98687 89.7319 7.14755C89.5749 7.30823 89.4546 7.50519 89.3708 7.73843C89.2871 7.96649 89.24 8.22565 89.2296 8.51591L88.7822 8.46149C88.7822 7.92762 88.8371 7.43262 88.947 6.9765C89.0569 6.52038 89.2165 6.12127 89.4258 5.77918C89.6351 5.43709 89.8967 5.17275 90.2107 4.98615C90.5299 4.79438 90.8962 4.69849 91.3095 4.69849C91.4247 4.69849 91.5476 4.70885 91.6784 4.72959C91.8145 4.74514 91.9217 4.76846 92.0002 4.79956Z" fill="url(#paint1_linear_149_2118)"/>
<path d="M77.8696 9.14567V8.9824C77.8696 8.3656 77.9586 7.79804 78.1365 7.27972C78.3144 6.75622 78.5734 6.30269 78.9135 5.91913C79.2537 5.53557 79.6696 5.23754 80.1615 5.02503C80.6534 4.80733 81.2133 4.69849 81.8412 4.69849C82.4796 4.69849 83.0447 4.80733 83.5366 5.02503C84.0337 5.23754 84.4523 5.53557 84.7924 5.91913C85.1325 6.30269 85.3915 6.75622 85.5694 7.27972C85.7473 7.79804 85.8363 8.3656 85.8363 8.9824V9.14567C85.8363 9.75729 85.7473 10.3249 85.5694 10.8484C85.3915 11.3667 85.1325 11.8202 84.7924 12.2089C84.4523 12.5925 84.0363 12.8905 83.5444 13.103C83.0525 13.3156 82.49 13.4218 81.8569 13.4218C81.229 13.4218 80.6665 13.3156 80.1694 13.103C79.6723 12.8905 79.2537 12.5925 78.9135 12.2089C78.5734 11.8202 78.3144 11.3667 78.1365 10.8484C77.9586 10.3249 77.8696 9.75729 77.8696 9.14567ZM79.9417 8.9824V9.14567C79.9417 9.51368 79.9784 9.85836 80.0516 10.1797C80.1249 10.5011 80.2374 10.7836 80.3891 11.0272C80.5409 11.2708 80.7371 11.4626 80.9778 11.6025C81.2237 11.7373 81.5168 11.8047 81.8569 11.8047C82.1918 11.8047 82.4796 11.7373 82.7203 11.6025C82.961 11.4626 83.1572 11.2708 83.3089 11.0272C83.4659 10.7836 83.581 10.5011 83.6543 10.1797C83.7275 9.85836 83.7642 9.51368 83.7642 9.14567V8.9824C83.7642 8.61958 83.7275 8.28008 83.6543 7.9639C83.581 7.64254 83.4659 7.36006 83.3089 7.11645C83.1572 6.86766 82.9584 6.67329 82.7124 6.53334C82.4717 6.38821 82.1813 6.31564 81.8412 6.31564C81.5063 6.31564 81.2185 6.38821 80.9778 6.53334C80.7371 6.67329 80.5409 6.86766 80.3891 7.11645C80.2374 7.36006 80.1249 7.64254 80.0516 7.9639C79.9784 8.28008 79.9417 8.61958 79.9417 8.9824Z" fill="url(#paint2_linear_149_2118)"/>
<path d="M77.064 4.85215V6.32937H72.1976V4.85215H77.064ZM73.5006 2.78406H75.5805V10.8387C75.5805 11.0875 75.6145 11.2793 75.6826 11.4141C75.7506 11.5488 75.8526 11.6396 75.9887 11.6862C76.1247 11.7329 76.2869 11.7562 76.4753 11.7562C76.6113 11.7562 76.7369 11.7484 76.852 11.7329C76.9672 11.7173 77.064 11.7018 77.1425 11.6862L77.1503 13.2256C76.9776 13.2826 76.7814 13.3293 76.5616 13.3656C76.3471 13.4018 76.1038 13.42 75.8317 13.42C75.366 13.42 74.9578 13.3422 74.6073 13.1867C74.2567 13.0261 73.9846 12.7695 73.791 12.417C73.5974 12.0594 73.5006 11.5877 73.5006 11.002V2.78406Z" fill="url(#paint3_linear_149_2118)"/>
<path d="M68.1459 11.8047C68.439 11.8047 68.7006 11.7476 68.9308 11.6336C69.1611 11.5196 69.3442 11.3589 69.4803 11.1516C69.6215 10.9442 69.6974 10.7032 69.7079 10.4285H71.6623C71.6518 10.9987 71.4896 11.5092 71.1756 11.9602C70.8617 12.4111 70.4431 12.7687 69.9198 13.0331C69.4018 13.2922 68.8209 13.4218 68.1773 13.4218C67.5233 13.4218 66.9529 13.313 66.4663 13.0953C65.9796 12.8776 65.5741 12.5744 65.2497 12.1856C64.9305 11.7969 64.6898 11.3459 64.5276 10.8328C64.3706 10.3197 64.2921 9.77025 64.2921 9.18455V8.93575C64.2921 8.35005 64.3706 7.80063 64.5276 7.2875C64.6898 6.77436 64.9305 6.32342 65.2497 5.93468C65.5741 5.54594 65.9796 5.24272 66.4663 5.02503C66.9529 4.80733 67.5206 4.69849 68.1695 4.69849C68.855 4.69849 69.4567 4.83066 69.9747 5.095C70.498 5.35934 70.9061 5.73253 71.1992 6.21457C71.4974 6.69661 71.6518 7.26417 71.6623 7.91725H69.7079C69.6974 7.61663 69.6294 7.3471 69.5038 7.10867C69.3782 6.87025 69.2003 6.67847 68.9701 6.53334C68.7398 6.38821 68.4599 6.31564 68.1302 6.31564C67.7797 6.31564 67.4866 6.38821 67.2512 6.53334C67.0209 6.67847 66.8404 6.87802 66.7096 7.132C66.584 7.38079 66.495 7.66069 66.4427 7.97168C66.3956 8.27749 66.3721 8.59884 66.3721 8.93575V9.18455C66.3721 9.52664 66.3956 9.85318 66.4427 10.1642C66.495 10.4752 66.584 10.7551 66.7096 11.0038C66.8404 11.2475 67.0209 11.4418 67.2512 11.587C67.4866 11.7321 67.7849 11.8047 68.1459 11.8047Z" fill="url(#paint4_linear_149_2118)"/>
<path d="M62.6839 4.85196V13.2643H60.6039V4.85196H62.6839ZM60.4626 2.6517C60.4626 2.34589 60.5673 2.09191 60.7766 1.88977C60.9911 1.68762 61.2789 1.58655 61.64 1.58655C62.001 1.58655 62.2862 1.68762 62.4955 1.88977C62.7101 2.09191 62.8173 2.34589 62.8173 2.6517C62.8173 2.95232 62.7101 3.20371 62.4955 3.40585C62.2862 3.608 62.001 3.70907 61.64 3.70907C61.2789 3.70907 60.9911 3.608 60.7766 3.40585C60.5673 3.20371 60.4626 2.95232 60.4626 2.6517Z" fill="url(#paint5_linear_149_2118)"/>
<path d="M56.5223 11.4781V1.32422H58.6101V13.2663H56.7263L56.5223 11.4781ZM51.0673 9.16122V8.99795C51.0673 8.35523 51.1405 7.77212 51.287 7.24862C51.4388 6.71993 51.6585 6.2664 51.9463 5.88803C52.2341 5.50965 52.5821 5.2168 52.9902 5.00947C53.4036 4.80215 53.8719 4.69848 54.3952 4.69848C54.9028 4.69848 55.3449 4.79955 55.7217 5.0017C56.1037 5.20384 56.4281 5.49151 56.6949 5.8647C56.967 6.23789 57.1842 6.68106 57.3464 7.19419C57.5086 7.70215 57.6263 8.26193 57.6996 8.87355V9.31671C57.6263 9.91278 57.5086 10.4596 57.3464 10.9572C57.1842 11.4548 56.967 11.8902 56.6949 12.2634C56.4281 12.6314 56.1037 12.9164 55.7217 13.1186C55.3397 13.3207 54.8923 13.4218 54.3795 13.4218C53.8615 13.4218 53.3958 13.3156 52.9824 13.103C52.5743 12.8905 52.2263 12.5925 51.9385 12.2089C51.6559 11.8254 51.4388 11.3744 51.287 10.8561C51.1405 10.3378 51.0673 9.77283 51.0673 9.16122ZM53.1472 8.99795V9.16122C53.1472 9.52404 53.1786 9.86354 53.2414 10.1797C53.3042 10.4959 53.4062 10.7758 53.5475 11.0194C53.6888 11.2578 53.8693 11.4444 54.0891 11.5792C54.3141 11.7139 54.5862 11.7813 54.9054 11.7813C55.3135 11.7813 55.6484 11.6932 55.91 11.517C56.1769 11.3356 56.3836 11.0894 56.5301 10.7784C56.6766 10.4622 56.7708 10.1072 56.8127 9.71323V8.49258C56.7917 8.18159 56.7368 7.89393 56.6478 7.62958C56.5641 7.36524 56.4438 7.13718 56.2868 6.9454C56.1351 6.75362 55.9467 6.60331 55.7217 6.49446C55.4967 6.38561 55.2298 6.33119 54.9211 6.33119C54.6019 6.33119 54.3298 6.40116 54.1048 6.54111C53.8798 6.67587 53.6967 6.86506 53.5554 7.10867C53.4141 7.35228 53.3094 7.63477 53.2414 7.95612C53.1786 8.27748 53.1472 8.62476 53.1472 8.99795Z" fill="url(#paint6_linear_149_2118)"/>
<path d="M46.5932 13.4218C45.9496 13.4218 45.3714 13.3181 44.8586 13.1108C44.3458 12.9035 43.9089 12.6158 43.5479 12.2478C43.192 11.8746 42.9173 11.4418 42.7237 10.9494C42.5353 10.4518 42.4412 9.91797 42.4412 9.34782V9.03683C42.4412 8.38893 42.5353 7.80063 42.7237 7.27195C42.9121 6.73808 43.179 6.27936 43.5243 5.89581C43.8697 5.51225 44.283 5.21681 44.7644 5.00948C45.2458 4.80215 45.777 4.69849 46.3578 4.69849C46.9595 4.69849 47.4906 4.79956 47.9511 5.0017C48.4116 5.19867 48.7962 5.47856 49.1049 5.84138C49.4136 6.20421 49.6465 6.63959 49.8035 7.14755C49.9604 7.65032 50.0389 8.20751 50.0389 8.81913V9.68213H43.383V8.26712H47.9982V8.11162C47.9877 7.78508 47.9249 7.48705 47.8098 7.21752C47.6947 6.94281 47.5168 6.72512 47.2761 6.56444C47.0354 6.39858 46.7241 6.31564 46.3421 6.31564C46.0334 6.31564 45.7639 6.38303 45.5336 6.51779C45.3086 6.64737 45.1203 6.83397 44.9685 7.07758C44.822 7.316 44.7121 7.60108 44.6389 7.9328C44.5656 8.26453 44.529 8.63254 44.529 9.03683V9.34782C44.529 9.70027 44.5761 10.0268 44.6703 10.3274C44.7697 10.6281 44.9136 10.8898 45.1019 11.1127C45.2956 11.3304 45.5258 11.5014 45.7927 11.6258C46.0648 11.745 46.3735 11.8047 46.7188 11.8047C47.1531 11.8047 47.5456 11.7217 47.8962 11.5559C48.252 11.3848 48.5607 11.1334 48.8223 10.8017L49.8662 11.8746C49.6883 12.1338 49.4476 12.3826 49.1441 12.621C48.8459 12.8594 48.4848 13.0538 48.061 13.2041C47.6372 13.3492 47.1479 13.4218 46.5932 13.4218Z" fill="url(#paint7_linear_149_2118)"/>
<path d="M39.2166 6.57221V13.2663H37.1445V4.85398H39.1068L39.2166 6.57221ZM41.7989 4.79956L41.7675 6.71216C41.6524 6.69143 41.5216 6.67588 41.3751 6.66551C41.2338 6.65514 41.1004 6.64996 40.9748 6.64996C40.6556 6.64996 40.3757 6.69402 40.135 6.78213C39.8943 6.86506 39.6928 6.98687 39.5306 7.14755C39.3736 7.30823 39.2533 7.50519 39.1696 7.73843C39.0858 7.96649 39.0387 8.22565 39.0283 8.51591L38.5809 8.46149C38.5809 7.92762 38.6358 7.43262 38.7457 6.9765C38.8556 6.52038 39.0152 6.12127 39.2245 5.77918C39.4338 5.43709 39.6954 5.17275 40.0094 4.98615C40.3286 4.79438 40.6949 4.69849 41.1082 4.69849C41.2234 4.69849 41.3463 4.70885 41.4771 4.72959C41.6132 4.74514 41.7205 4.76846 41.7989 4.79956Z" fill="url(#paint8_linear_149_2118)"/>
<path d="M31.3817 9.137H28.4384V7.45765H31.3817C31.8631 7.45765 32.253 7.3799 32.5512 7.2244C32.8547 7.06372 33.0771 6.84603 33.2184 6.57132C33.3597 6.29143 33.4303 5.97266 33.4303 5.61502C33.4303 5.26774 33.3597 4.94379 33.2184 4.64317C33.0771 4.34254 32.8547 4.09893 32.5512 3.91234C32.253 3.72574 31.8631 3.63244 31.3817 3.63244H29.1448V13.2654H26.9863V1.94531H31.3817C32.2713 1.94531 33.03 2.1034 33.6579 2.41958C34.2911 2.73057 34.7725 3.16336 35.1021 3.71797C35.437 4.26739 35.6044 4.89455 35.6044 5.59947C35.6044 6.3303 35.437 6.96006 35.1021 7.48874C34.7725 8.01743 34.2911 8.42431 33.6579 8.70939C33.03 8.99446 32.2713 9.137 31.3817 9.137Z" fill="url(#paint9_linear_149_2118)"/>
<path d="M90.2953 22.3846C90.2974 22.3131 90.325 22.2511 90.378 22.1985C90.431 22.1459 90.4946 22.1186 90.5688 22.1165C90.6451 22.1165 90.7077 22.1427 90.7564 22.1953C90.8052 22.2458 90.8275 22.3079 90.8232 22.3815C90.819 22.4551 90.7904 22.5171 90.7374 22.5676C90.6843 22.6181 90.6207 22.6433 90.5465 22.6433C90.4702 22.6454 90.4077 22.6223 90.3589 22.5739C90.3101 22.5234 90.2889 22.4603 90.2953 22.3846Z" fill="#5D7593"/>
<path d="M86.9752 21.8041L88.2314 19.2044H88.5081L88.2218 19.9269L86.9179 22.615H86.6444L86.9752 21.8041ZM86.5967 19.2013L86.848 21.8578L86.8607 22.615H86.5999L86.2246 19.1981L86.5967 19.2013ZM89.0455 21.8073L90.1841 19.2044H90.5785L89.0137 22.615H88.7339L89.0455 21.8073ZM88.5494 19.1981L88.8929 21.8199L88.9501 22.615H88.6989L88.3077 19.8764L88.2823 19.1981H88.5494Z" fill="#5D7593"/>
<path d="M84.6663 22.0029L84.9621 20.2393C84.9854 20.0773 84.9705 19.9385 84.9175 19.8228C84.8666 19.7051 84.784 19.6157 84.6695 19.5547C84.5571 19.4916 84.4182 19.459 84.2528 19.4569C84.1066 19.4548 83.9624 19.48 83.8203 19.5326C83.6783 19.5852 83.5542 19.6619 83.4482 19.7629C83.3443 19.8639 83.2754 19.9901 83.2415 20.1415L82.8694 20.1383C82.8927 19.9764 82.95 19.8334 83.0411 19.7093C83.1323 19.5831 83.2447 19.4779 83.3783 19.3938C83.514 19.3075 83.6602 19.2434 83.8171 19.2013C83.974 19.1571 84.1288 19.1361 84.2815 19.1382C84.5083 19.1382 84.7055 19.1834 84.873 19.2739C85.0405 19.3622 85.1656 19.4895 85.2483 19.6556C85.3331 19.8197 85.3607 20.0174 85.331 20.2488L85.0511 21.8988C85.032 22.0103 85.0193 22.1239 85.0129 22.2396C85.0066 22.3531 85.0151 22.4646 85.0384 22.574L85.0352 22.615H84.6472C84.6324 22.514 84.6271 22.412 84.6313 22.309C84.6377 22.2059 84.6493 22.1039 84.6663 22.0029ZM84.9875 20.6274L84.9462 20.9176H84.2433C84.1119 20.9176 83.973 20.9292 83.8267 20.9523C83.6804 20.9755 83.5405 21.0154 83.4069 21.0722C83.2733 21.129 83.1599 21.2079 83.0666 21.3088C82.9733 21.4077 82.9139 21.5339 82.8885 21.6874C82.8673 21.8199 82.8821 21.9356 82.933 22.0345C82.986 22.1312 83.0634 22.207 83.1652 22.2616C83.267 22.3142 83.3814 22.3416 83.5087 22.3437C83.6952 22.3458 83.8723 22.3121 84.0398 22.2427C84.2073 22.1712 84.3567 22.0723 84.4882 21.9461C84.6196 21.8199 84.7225 21.6727 84.7967 21.5044L84.9271 21.7253C84.8698 21.8683 84.7893 21.9998 84.6854 22.1197C84.5836 22.2375 84.467 22.3384 84.3355 22.4226C84.2041 22.5046 84.0631 22.5687 83.9126 22.615C83.762 22.6592 83.6094 22.6813 83.4546 22.6813C83.2659 22.6771 83.0963 22.636 82.9457 22.5582C82.7973 22.4804 82.6818 22.37 82.5991 22.2269C82.5164 22.0839 82.4857 21.9156 82.5069 21.7221C82.5302 21.516 82.5959 21.3435 82.704 21.2047C82.8143 21.0638 82.951 20.9513 83.1143 20.8671C83.2776 20.783 83.4535 20.722 83.6422 20.6842C83.8309 20.6463 84.0143 20.6274 84.1924 20.6274H84.9875Z" fill="#5D7593"/>
<path d="M81.3904 19.7787L80.8975 22.615H80.5254L81.1201 19.2013H81.4827L81.3904 19.7787ZM82.6657 19.176L82.618 19.5199C82.5799 19.5136 82.5406 19.5084 82.5004 19.5042C82.4601 19.5 82.4198 19.4979 82.3795 19.4979C82.2078 19.4958 82.0551 19.5273 81.9215 19.5925C81.7901 19.6577 81.6745 19.7461 81.5749 19.8575C81.4774 19.969 81.3957 20.0952 81.33 20.2361C81.2643 20.3749 81.2134 20.518 81.1774 20.6652L81.0279 20.7188C81.0597 20.5359 81.1074 20.3508 81.171 20.1636C81.2367 19.9764 81.3236 19.8049 81.4318 19.6493C81.542 19.4915 81.6767 19.3653 81.8357 19.2707C81.9968 19.176 82.1876 19.1308 82.4081 19.135C82.4527 19.135 82.4961 19.1392 82.5385 19.1477C82.5809 19.154 82.6233 19.1634 82.6657 19.176Z" fill="#5D7593"/>
<path d="M79.301 21.9367L80.0293 17.7689H80.4014L79.5554 22.615H79.2088L79.301 21.9367ZM77.1575 20.9555L77.167 20.8892C77.1988 20.6831 77.2529 20.477 77.3292 20.2708C77.4056 20.0626 77.5073 19.8722 77.6345 19.6998C77.7617 19.5273 77.9155 19.3895 78.0957 19.2865C78.278 19.1834 78.489 19.134 78.7286 19.1382C78.9173 19.1403 79.0826 19.1803 79.2247 19.2581C79.3667 19.3338 79.4844 19.4369 79.5777 19.5673C79.6731 19.6977 79.742 19.8449 79.7844 20.009C79.8289 20.1709 79.8459 20.3392 79.8353 20.5138L79.6986 21.3561C79.6604 21.537 79.5957 21.7074 79.5046 21.8673C79.4134 22.0271 79.301 22.1691 79.1674 22.2932C79.036 22.4152 78.8855 22.5109 78.7158 22.5803C78.5483 22.6497 78.3681 22.6823 78.1752 22.6781C77.9441 22.676 77.7554 22.6202 77.6091 22.5109C77.4649 22.4015 77.3557 22.2606 77.2815 22.0881C77.2073 21.9156 77.1617 21.7295 77.1448 21.5297C77.1299 21.3299 77.1342 21.1385 77.1575 20.9555ZM77.5487 20.8861L77.5391 20.9523C77.5179 21.0953 77.5084 21.2468 77.5105 21.4066C77.5126 21.5665 77.5359 21.7179 77.5805 21.8609C77.6271 22.0019 77.7045 22.1175 77.8126 22.208C77.9208 22.2984 78.0681 22.3458 78.2547 22.35C78.4392 22.3521 78.6151 22.3142 78.7826 22.2364C78.9501 22.1565 79.0964 22.0471 79.2215 21.9083C79.3487 21.7694 79.4378 21.6128 79.4887 21.4382L79.6604 20.4538C79.6689 20.3213 79.653 20.1962 79.6127 20.0784C79.5745 19.9606 79.5162 19.8565 79.4378 19.766C79.3593 19.6756 79.2639 19.6041 79.1515 19.5515C79.0413 19.4968 78.9183 19.4695 78.7826 19.4695C78.5897 19.4653 78.4211 19.5063 78.277 19.5925C78.1349 19.6766 78.0141 19.7892 77.9144 19.9301C77.8148 20.0689 77.7352 20.2225 77.6759 20.3907C77.6165 20.5569 77.5741 20.722 77.5487 20.8861Z" fill="#5D7593"/>
<path d="M74.7657 17.7689L73.9197 22.615H73.5476L74.3936 17.7689H74.7657ZM74.1773 20.6968L74.0278 20.6021C74.0702 20.417 74.1349 20.2372 74.2218 20.0626C74.3088 19.8859 74.4169 19.7282 74.5462 19.5894C74.6777 19.4484 74.8282 19.338 74.9978 19.2581C75.1696 19.176 75.3604 19.1361 75.5703 19.1382C75.759 19.1403 75.9148 19.175 76.0378 19.2423C76.1629 19.3075 76.2594 19.399 76.3272 19.5168C76.395 19.6325 76.4374 19.766 76.4544 19.9175C76.4735 20.0668 76.4714 20.2256 76.4481 20.3939L76.0696 22.615H75.6943L76.0791 20.3876C76.1025 20.2235 76.1014 20.0721 76.076 19.9332C76.0526 19.7923 75.9933 19.6798 75.8979 19.5957C75.8024 19.5094 75.6593 19.4663 75.4685 19.4663C75.2989 19.4642 75.1431 19.4989 75.001 19.5704C74.859 19.6398 74.7317 19.7345 74.6194 19.8544C74.5091 19.9722 74.4158 20.1047 74.3395 20.2519C74.2653 20.397 74.2112 20.5453 74.1773 20.6968Z" fill="#5D7593"/>
<path d="M73.3728 19.2013L73.3219 19.5105H71.6427L71.6968 19.2013H73.3728ZM72.4632 18.3242H72.8353L72.2374 21.7884C72.2247 21.8788 72.2215 21.9661 72.2279 22.0503C72.2364 22.1344 72.265 22.2038 72.3137 22.2585C72.3625 22.3111 72.442 22.3384 72.5523 22.3405C72.6053 22.3405 72.6572 22.3374 72.7081 22.3311C72.7611 22.3226 72.8131 22.3153 72.8639 22.309L72.848 22.6308C72.7844 22.6476 72.7208 22.6592 72.6572 22.6655C72.5936 22.6739 72.5289 22.6771 72.4632 22.675C72.2851 22.6728 72.1505 22.6297 72.0593 22.5456C71.9682 22.4615 71.9088 22.3521 71.8812 22.2175C71.8537 22.0808 71.8505 21.9356 71.8717 21.7821L72.4632 18.3242Z" fill="#5D7593"/>
<path d="M71.1054 19.2013L70.5106 22.615H70.1385L70.7333 19.2013H71.1054ZM70.8414 18.217C70.8435 18.1455 70.87 18.0845 70.9209 18.034C70.9718 17.9835 71.0333 17.9583 71.1054 17.9583C71.1796 17.9562 71.24 17.9803 71.2866 18.0308C71.3354 18.0813 71.3566 18.1423 71.3502 18.2138C71.3481 18.2832 71.3206 18.3432 71.2676 18.3936C71.2146 18.442 71.1531 18.4662 71.0831 18.4662C71.011 18.4683 70.9516 18.4452 70.905 18.3968C70.8584 18.3484 70.8372 18.2885 70.8414 18.217Z" fill="#5D7593"/>
<path d="M65.8705 21.3877L67.378 18.0245H67.696L67.2858 19.0436L65.6861 22.615H65.3808L65.8705 21.3877ZM65.2726 18.0213L65.5684 21.3909L65.6193 22.615H65.3203L64.8878 18.0213H65.2726ZM68.472 21.353L69.8046 18.0245H70.2085L68.3353 22.615H68.0204L68.472 21.353ZM67.7183 18.0213L68.154 21.4224L68.2589 22.615H67.9695L67.5116 19.0057L67.4225 18.0182L67.7183 18.0213Z" fill="#5D7593"/>
<path d="M61.3481 22.3846C61.3503 22.3131 61.3778 22.2511 61.4308 22.1985C61.4838 22.1459 61.5474 22.1186 61.6217 22.1165C61.698 22.1165 61.7605 22.1427 61.8093 22.1953C61.8581 22.2458 61.8803 22.3079 61.8761 22.3815C61.8718 22.4551 61.8432 22.5171 61.7902 22.5676C61.7372 22.6181 61.6736 22.6433 61.5994 22.6433C61.5231 22.6454 61.4605 22.6223 61.4118 22.5739C61.363 22.5234 61.3418 22.4603 61.3481 22.3846Z" fill="#5D7593"/>
<path d="M58.7051 19.9459L58.2407 22.6151H57.8687L58.4634 19.2014H58.8196L58.7051 19.9459ZM58.4984 20.6968L58.3489 20.6022C58.3913 20.4171 58.4559 20.2373 58.5429 20.0627C58.6298 19.886 58.7379 19.7282 58.8673 19.5894C58.9987 19.4485 59.1493 19.3381 59.3189 19.2582C59.4906 19.1761 59.6814 19.1362 59.8913 19.1383C60.08 19.1404 60.2359 19.1751 60.3588 19.2424C60.4839 19.3076 60.5804 19.3991 60.6482 19.5169C60.7161 19.6325 60.7585 19.7661 60.7755 19.9175C60.7945 20.0669 60.7924 20.2257 60.7691 20.3939L60.3906 22.6151H60.0154L60.4002 20.3876C60.4235 20.2236 60.4224 20.0721 60.397 19.9333C60.3737 19.7924 60.3143 19.6799 60.2189 19.5957C60.1235 19.5095 59.9804 19.4664 59.7896 19.4664C59.6199 19.4643 59.4641 19.499 59.3221 19.5705C59.18 19.6399 59.0528 19.7346 58.9404 19.8544C58.8302 19.9722 58.7369 20.1047 58.6605 20.252C58.5863 20.3971 58.5323 20.5454 58.4984 20.6968Z" fill="#5D7593"/>
<path d="M57.4618 19.2013L56.8671 22.615H56.495L57.0897 19.2013H57.4618ZM57.1978 18.217C57.2 18.1455 57.2265 18.0845 57.2774 18.034C57.3282 17.9835 57.3897 17.9583 57.4618 17.9583C57.536 17.9562 57.5964 17.9803 57.6431 18.0308C57.6919 18.0813 57.7131 18.1423 57.7067 18.2138C57.7046 18.2832 57.677 18.3432 57.624 18.3936C57.571 18.442 57.5095 18.4662 57.4395 18.4662C57.3675 18.4683 57.3081 18.4452 57.2614 18.3968C57.2148 18.3484 57.1936 18.2885 57.1978 18.217Z" fill="#5D7593"/>
<path d="M52.227 21.3877L53.7344 18.0245H54.0525L53.6422 19.0436L52.0425 22.615H51.7372L52.227 21.3877ZM51.6291 18.0213L51.9248 21.3909L51.9757 22.615H51.6768L51.2443 18.0213H51.6291ZM54.8285 21.353L56.161 18.0245H56.5649L54.6917 22.615H54.3769L54.8285 21.353ZM54.0747 18.0213L54.5104 21.4224L54.6154 22.615H54.326L53.868 19.0057L53.779 18.0182L54.0747 18.0213Z" fill="#5D7593"/>
<path d="M47.7045 22.3846C47.7066 22.3131 47.7342 22.2511 47.7872 22.1985C47.8402 22.1459 47.9038 22.1186 47.978 22.1165C48.0543 22.1165 48.1169 22.1427 48.1656 22.1953C48.2144 22.2458 48.2366 22.3079 48.2324 22.3815C48.2282 22.4551 48.1995 22.5171 48.1465 22.5676C48.0935 22.6181 48.0299 22.6433 47.9557 22.6433C47.8794 22.6454 47.8168 22.6223 47.7681 22.5739C47.7193 22.5234 47.6981 22.4603 47.7045 22.3846Z" fill="#5D7593"/>
<path d="M46.0796 22.2585L47.6539 19.2044H48.0673L45.9715 23.1639C45.9164 23.2712 45.8549 23.3743 45.7871 23.4731C45.7192 23.5741 45.6429 23.6635 45.5581 23.7413C45.4733 23.8212 45.3768 23.8833 45.2687 23.9275C45.1627 23.9737 45.0429 23.9979 44.9093 24C44.8605 23.9979 44.8107 23.9927 44.7598 23.9842C44.7089 23.9779 44.6602 23.9685 44.6135 23.9558L44.639 23.6372C44.6708 23.6414 44.7026 23.6456 44.7344 23.6498C44.7641 23.6561 44.7937 23.6593 44.8234 23.6593C44.9655 23.6635 45.0885 23.6372 45.1923 23.5804C45.2962 23.5257 45.3863 23.451 45.4627 23.3564C45.5411 23.2617 45.61 23.1566 45.6694 23.0409L46.0796 22.2585ZM45.6408 19.1981L46.2005 22.148L46.2323 22.5361L45.9461 22.6875L45.2496 19.1981H45.6408Z" fill="#5D7593"/>
<path d="M43.8376 22.0029L44.1333 20.2393C44.1566 20.0773 44.1418 19.9385 44.0888 19.8228C44.0379 19.7051 43.9552 19.6157 43.8407 19.5547C43.7284 19.4916 43.5895 19.459 43.4241 19.4569C43.2778 19.4548 43.1336 19.48 42.9916 19.5326C42.8495 19.5852 42.7255 19.6619 42.6195 19.7629C42.5156 19.8639 42.4467 19.9901 42.4128 20.1415L42.0407 20.1383C42.064 19.9764 42.1212 19.8334 42.2124 19.7093C42.3036 19.5831 42.416 19.4779 42.5495 19.3938C42.6852 19.3075 42.8315 19.2434 42.9884 19.2013C43.1453 19.1571 43.3001 19.1361 43.4527 19.1382C43.6796 19.1382 43.8768 19.1834 44.0443 19.2739C44.2118 19.3622 44.3369 19.4895 44.4195 19.6556C44.5044 19.8197 44.5319 20.0174 44.5022 20.2488L44.2224 21.8988C44.2033 22.0103 44.1906 22.1239 44.1842 22.2396C44.1778 22.3531 44.1863 22.4646 44.2096 22.574L44.2065 22.615H43.8185C43.8036 22.514 43.7983 22.412 43.8026 22.309C43.8089 22.2059 43.8206 22.1039 43.8376 22.0029ZM44.1588 20.6274L44.1174 20.9176H43.4146C43.2831 20.9176 43.1442 20.9292 42.9979 20.9523C42.8517 20.9755 42.7117 21.0154 42.5781 21.0722C42.4446 21.129 42.3311 21.2079 42.2379 21.3088C42.1446 21.4077 42.0852 21.5339 42.0598 21.6874C42.0386 21.8199 42.0534 21.9356 42.1043 22.0345C42.1573 22.1312 42.2347 22.207 42.3364 22.2616C42.4382 22.3142 42.5527 22.3416 42.6799 22.3437C42.8665 22.3458 43.0435 22.3121 43.211 22.2427C43.3785 22.1712 43.528 22.0723 43.6595 21.9461C43.7909 21.8199 43.8937 21.6727 43.9679 21.5044L44.0983 21.7253C44.0411 21.8683 43.9605 21.9998 43.8566 22.1197C43.7549 22.2375 43.6383 22.3384 43.5068 22.4226C43.3753 22.5046 43.2344 22.5687 43.0838 22.615C42.9333 22.6592 42.7806 22.6813 42.6259 22.6813C42.4372 22.6771 42.2675 22.636 42.117 22.5582C41.9686 22.4804 41.853 22.37 41.7704 22.2269C41.6877 22.0839 41.6569 21.9156 41.6781 21.7221C41.7014 21.516 41.7672 21.3435 41.8753 21.2047C41.9856 21.0638 42.1223 20.9513 42.2856 20.8671C42.4488 20.783 42.6248 20.722 42.8135 20.6842C43.0022 20.6463 43.1856 20.6274 43.3637 20.6274H44.1588Z" fill="#5D7593"/>
<path d="M41.5348 17.7689L40.692 22.615H40.3199L41.1627 17.7689H41.5348Z" fill="#5D7593"/>
<path d="M38.3515 20.7441H37.0444L37.0985 20.4128H38.361C38.5815 20.4107 38.7861 20.3718 38.9748 20.2961C39.1635 20.2183 39.3204 20.1047 39.4455 19.9554C39.5727 19.8039 39.6544 19.6136 39.6904 19.3843C39.7243 19.1719 39.7063 18.9899 39.6363 18.8385C39.5685 18.6871 39.4593 18.5703 39.3088 18.4883C39.1582 18.4063 38.978 18.3621 38.7681 18.3558H37.5978L36.8536 22.615H36.4688L37.2702 18.0214H38.7745C39.0501 18.0277 39.2918 18.0845 39.4996 18.1917C39.7095 18.2969 39.8664 18.4504 39.9703 18.6524C40.0763 18.8522 40.1113 19.0941 40.0752 19.378C40.0371 19.683 39.9374 19.9364 39.7763 20.1384C39.6151 20.3403 39.4105 20.4917 39.1625 20.5927C38.9165 20.6915 38.6462 20.742 38.3515 20.7441Z" fill="#5D7593"/>
<defs>
<linearGradient id="paint0_linear_149_2118" x1="0" y1="0" x2="10.5993" y2="12.4838" gradientUnits="userSpaceOnUse">
<stop stop-color="#F8221F"/>
<stop offset="1" stop-color="#FE734C"/>
</linearGradient>
<linearGradient id="paint1_linear_149_2118" x1="59.3853" y1="-0.00267662" x2="59.3853" y2="13.2663" gradientUnits="userSpaceOnUse">
<stop stop-color="#F8221F"/>
<stop offset="1" stop-color="#FE734C"/>
</linearGradient>
<linearGradient id="paint2_linear_149_2118" x1="59.3828" y1="-0.00267641" x2="59.3828" y2="13.2663" gradientUnits="userSpaceOnUse">
<stop stop-color="#F8221F"/>
<stop offset="1" stop-color="#FE734C"/>
</linearGradient>
<linearGradient id="paint3_linear_149_2118" x1="59.3856" y1="-0.00450394" x2="59.3856" y2="13.2645" gradientUnits="userSpaceOnUse">
<stop stop-color="#F8221F"/>
<stop offset="1" stop-color="#FE734C"/>
</linearGradient>
<linearGradient id="paint4_linear_149_2118" x1="59.3839" y1="-0.00267641" x2="59.3839" y2="13.2663" gradientUnits="userSpaceOnUse">
<stop stop-color="#F8221F"/>
<stop offset="1" stop-color="#FE734C"/>
</linearGradient>
<linearGradient id="paint5_linear_149_2118" x1="59.3847" y1="-0.00469444" x2="59.3847" y2="13.2643" gradientUnits="userSpaceOnUse">
<stop stop-color="#F8221F"/>
<stop offset="1" stop-color="#FE734C"/>
</linearGradient>
<linearGradient id="paint6_linear_149_2118" x1="59.3845" y1="-0.00268058" x2="59.3845" y2="13.2663" gradientUnits="userSpaceOnUse">
<stop stop-color="#F8221F"/>
<stop offset="1" stop-color="#FE734C"/>
</linearGradient>
<linearGradient id="paint7_linear_149_2118" x1="59.3844" y1="-0.00267641" x2="59.3844" y2="13.2663" gradientUnits="userSpaceOnUse">
<stop stop-color="#F8221F"/>
<stop offset="1" stop-color="#FE734C"/>
</linearGradient>
<linearGradient id="paint8_linear_149_2118" x1="59.3858" y1="-0.00267662" x2="59.3858" y2="13.2663" gradientUnits="userSpaceOnUse">
<stop stop-color="#F8221F"/>
<stop offset="1" stop-color="#FE734C"/>
</linearGradient>
<linearGradient id="paint9_linear_149_2118" x1="59.3841" y1="-0.00357064" x2="59.3841" y2="13.2654" gradientUnits="userSpaceOnUse">
<stop stop-color="#F8221F"/>
<stop offset="1" stop-color="#FE734C"/>
</linearGradient>
</defs>
</svg>
